<svg class="homepage-hero__decorations-large" viewBox="0 0 1985 1143" fill="none" xmlns="http://www.w3.org/2000/svg">
        <path d="M68.8768 663.759C61.0677 659.251 57.1631 656.997 56.5461 653.265C55.929 649.533 58.9001 646.142 64.8423 639.359L110.527 587.216C114.671 582.486 116.742 580.121 119.568 579.654C122.393 579.187 125.116 580.759 130.561 583.903L166.971 604.924C172.417 608.068 175.14 609.64 176.148 612.321C177.156 615.001 176.144 617.978 174.12 623.931L151.804 689.567C148.902 698.104 147.45 702.373 143.91 703.704C140.37 705.036 136.465 702.781 128.656 698.273L68.8768 663.759Z" fill="#E39A4D"></path>
        <path d="M1829.45 1020.73C1822.17 1018.78 1818.53 1017.81 1816.87 1014.94C1815.21 1012.07 1816.19 1008.42 1818.14 1001.14L1835.74 935.456C1837.69 928.17 1838.67 924.527 1841.54 922.87C1844.41 921.213 1848.05 922.189 1855.33 924.14C1875.58 929.566 1900.78 936.318 1921.03 941.743C1928.31 943.694 1931.95 944.669 1933.61 947.539C1935.26 950.409 1934.29 954.052 1932.33 961.337L1914.73 1027.02C1912.78 1034.3 1911.81 1037.95 1908.94 1039.6C1906.07 1041.26 1902.43 1040.29 1895.15 1038.33C1874.9 1032.91 1849.7 1026.16 1829.45 1020.73Z" fill="#E39A4D"></path>
        <path d="M1312.84 89.2358C1301.27 86.1347 1295.48 84.5841 1294.25 80.2097C1293.01 75.8354 1297.13 71.4844 1305.37 62.7824L1351.79 13.7377C1360.74 4.27395 1365.22 -0.457928 1369.83 0.775733C1374.43 2.00939 1375.94 8.34672 1378.97 21.0214L1394.65 86.7059C1397.43 98.3604 1398.82 104.188 1395.56 107.358C1392.31 110.527 1386.52 108.977 1374.95 105.876L1312.84 89.2358Z" fill="#E39A4D"></path>
        <path d="M218.105 222.968C201.782 227.342 188.585 226.66 178.514 220.923C168.542 215.159 161.351 204.049 156.942 187.593C152.532 171.136 153.205 157.919 158.958 147.942C164.812 137.938 175.9 130.749 192.223 126.375C208.645 121.975 221.842 122.657 231.813 128.421C241.861 134.068 249.101 145.165 253.535 161.711C257.968 178.257 257.258 191.532 251.405 201.536C245.627 211.424 234.527 218.568 218.105 222.968Z" fill="#E39A4D"></path>
        <path d="M1743.17 358.501C1728.54 350.052 1719.69 340.238 1716.62 329.06C1713.65 317.933 1716.42 304.993 1724.94 290.238C1733.46 275.484 1743.28 266.613 1754.4 263.627C1765.61 260.692 1778.54 263.449 1793.17 271.898C1807.89 280.399 1816.74 290.213 1819.72 301.339C1822.83 312.437 1820.1 325.404 1811.54 340.238C1802.97 355.073 1793.09 363.958 1781.87 366.893C1770.8 369.799 1757.89 367.002 1743.17 358.501Z" fill="#A5C8D8"></path>
        <path d="M1550.87 440.146C1544.32 437.074 1541.05 435.537 1540 432.184C1538.94 428.831 1540.86 425.507 1544.7 418.859L1578.7 359.969C1582.47 353.437 1584.36 350.171 1587.56 349.314C1590.76 348.456 1594.02 350.342 1600.56 354.113L1659.45 388.113C1666.09 391.951 1669.42 393.871 1670.18 397.301C1670.95 400.732 1668.88 403.699 1664.75 409.631C1649.68 431.244 1632.77 444.514 1614 449.441C1595.5 454.311 1574.45 451.212 1550.87 440.146Z" fill="#CBB0EB"></path>
        <path d="M65.32 235.178C72.1225 232.721 75.5237 231.492 78.6391 233.118C81.7544 234.745 82.7479 238.452 84.7348 245.868L102.335 311.551C104.287 318.836 105.263 322.479 103.606 325.349C101.949 328.218 98.3063 329.194 91.0208 331.147L25.3378 348.746C17.9223 350.733 14.2146 351.727 11.2481 349.841C8.28157 347.956 7.64606 344.396 6.37504 337.277C1.74462 311.343 4.32161 289.999 14.106 273.247C23.7466 256.72 40.8179 244.03 65.32 235.178Z" fill="#CBB0EB"></path>
        <path d="M476.167 432.172C484.877 429.838 489.231 428.671 493.372 429.781C497.513 430.89 500.701 434.078 507.077 440.454L521.961 455.338C528.337 461.714 531.525 464.902 532.634 469.043C533.744 473.184 532.577 477.539 530.243 486.248L524.795 506.58C522.462 515.289 521.295 519.644 518.263 522.676C515.232 525.707 510.877 526.874 502.168 529.208L481.836 534.656C473.126 536.989 468.772 538.156 464.631 537.047C460.489 535.937 457.302 532.749 450.926 526.373L436.042 511.489C429.666 505.113 426.478 501.926 425.369 497.785C424.259 493.643 425.426 489.289 427.76 480.579L433.208 460.247C435.541 451.538 436.708 447.183 439.74 444.152C442.771 441.12 447.126 439.953 455.835 437.62L476.167 432.172Z" fill="#A5C8D8"></path>
        <path d="M1927.2 640.793C1935.91 638.459 1940.27 637.292 1944.41 638.402C1948.55 639.512 1951.74 642.699 1958.11 649.075L1973 663.959C1979.37 670.335 1982.56 673.523 1983.67 677.664C1984.78 681.805 1983.61 686.16 1981.28 694.869L1975.83 715.201C1973.5 723.911 1972.33 728.265 1969.3 731.297C1966.27 734.328 1961.91 735.495 1953.2 737.829L1932.87 743.277C1924.16 745.61 1919.81 746.777 1915.67 745.668C1911.52 744.558 1908.34 741.37 1901.96 734.995L1887.08 720.11C1880.7 713.735 1877.51 710.547 1876.4 706.406C1875.29 702.265 1876.46 697.91 1878.79 689.201L1884.24 668.868C1886.58 660.159 1887.74 655.804 1890.77 652.773C1893.81 649.741 1898.16 648.574 1906.87 646.241L1927.2 640.793Z" fill="#CBB0EB"></path>
        <path d="M52.2025 1037.21C60.9118 1034.87 65.2664 1033.71 69.4075 1034.82C73.5486 1035.93 76.7364 1039.11 83.1121 1045.49L97.9964 1060.37C104.372 1066.75 107.56 1069.94 108.669 1074.08C109.779 1078.22 108.612 1082.57 106.279 1091.28L100.831 1111.62C98.4969 1120.32 97.3301 1124.68 94.2986 1127.71C91.2671 1130.74 86.9124 1131.91 78.2031 1134.24L57.8708 1139.69C49.1615 1142.02 44.8069 1143.19 40.6658 1142.08C36.5247 1140.97 33.3368 1137.78 26.9612 1131.41L12.0769 1116.52C5.70123 1110.15 2.51341 1106.96 1.4038 1102.82C0.294198 1098.68 1.46102 1094.32 3.79467 1085.61L9.2427 1065.28C11.5764 1056.57 12.7432 1052.22 15.7747 1049.19C18.8062 1046.16 23.1608 1044.99 31.8701 1042.65L52.2025 1037.21Z" fill="#CBB0EB"></path>
    </svg>