<svg viewBox="0 0 2000 1200" fill="none" xmlns="http://www.w3.org/2000/svg">
  <path d="M150 700C140 690 135 685 134 678C133 670 138 665 148 654L200 590C210 580 215 575 220 574C225 573 230 575 240 580L300 610C310 615 315 620 317 625C319 630 317 635 315 645L290 710C285 725 280 730 270 735C260 740 250 735 230 720L150 700Z" fill="#fab555"/>
  <path d="M1850 1050C1840 1045 1835 1040 1834 1032C1833 1025 1838 1020 1848 1010L1900 960C1910 950 1915 945 1920 944C1925 943 1930 945 1940 950L2000 980C2010 985 2015 990 2017 995C2019 1000 2017 1005 2015 1015L1990 1080C1985 1095 1980 1100 1970 1105C1960 1110 1950 1105 1930 1090L1850 1050Z" fill="#af2f64"/>
  <path d="M1350 150C1340 140 1335 135 1334 128C1333 120 1338 115 1348 105L1400 50C1410 40 1415 35 1420 34C1425 33 1430 35 1440 40L1500 70C1510 75 1515 80 1517 85C1519 90 1517 95 1515 105L1490 170C1485 185 1480 190 1470 195C1460 200 1450 195 1430 180L1350 150Z" fill="#fab555"/>
  <path d="M350 300C330 310 320 315 310 310C300 305 290 295 280 280C270 265 265 255 260 240C255 225 260 215 270 205C280 195 290 190 300 185C310 180 320 185 330 195C340 205 350 215 360 230C370 245 375 255 370 270C365 285 360 290 350 300Z" fill="#af2f64"/>
  <path d="M1800 400C1785 390 1775 380 1772 370C1769 360 1772 350 1780 340C1790 330 1800 320 1810 315C1820 310 1830 315 1845 325C1860 335 1870 345 1873 355C1876 365 1873 375 1865 385C1855 395 1845 400 1835 405C1825 410 1815 410 1800 400Z" fill="#fab555"/>
  <path d="M1600 500C1590 495 1585 490 1584 485C1583 480 1585 475 1590 470L1650 420C1660 410 1665 405 1670 404C1675 403 1680 405 1690 410L1750 440C1760 445 1765 450 1767 455C1769 460 1767 465 1765 475L1740 540C1735 555 1730 560 1720 565C1710 570 1700 565 1680 550L1600 500Z" fill="#af2f64"/>
</svg>
