<svg width="589" height="770" viewBox="0 0 589 770" fill="none" xmlns="http://www.w3.org/2000/svg">
<rect y="0.228149" width="589" height="767.796" rx="20" fill="#E9FFD3"/>
<mask id="mask0_7767_6660" style="mask-type:alpha" maskUnits="userSpaceOnUse" x="0" y="0" width="589" height="769">
<rect width="589" height="767.796" transform="matrix(-1 0 0 1 589 0.228027)" fill="#D9D9D9"/>
</mask>
<g mask="url(#mask0_7767_6660)">
<path d="M-348.646 -253.009H146.642V225.196H-348.646V-253.009Z" stroke="#66B0F0" stroke-width="2" stroke-miterlimit="10"/>
<path d="M-101.002 -253.009H146.642V225.196H-101.002V-253.009Z" stroke="#66B0F0" stroke-width="2" stroke-miterlimit="10"/>
<path d="M-736.002 690.694L539.801 764.305V659.583H-736.002V690.694Z" fill="#D0F0E4"/>
<path d="M-677.865 578.416L473.585 652.028V547.306H-677.865V578.416Z" fill="#D0F0E4"/>
<path d="M-603.723 466.526L411.428 540.138V435.416H-603.723V466.526Z" fill="#D0F0E4"/>
<path d="M-545.282 355.411L342.178 429.023V324.301H-545.282V355.411Z" fill="#D0F0E4"/>
<path d="M539.801 659.583H-736.002V760.431" stroke="#66B0F0" stroke-width="2" stroke-miterlimit="10"/>
<path d="M473.585 546.918H-677.865V652.067" stroke="#66B0F0" stroke-width="2" stroke-miterlimit="10"/>
<path d="M411.428 435.028H-603.723V540.138" stroke="#66B0F0" stroke-width="2" stroke-miterlimit="10"/>
<path d="M341.799 323.913H-545.282V429.023" stroke="#66B0F0" stroke-width="2" stroke-miterlimit="10"/>
<path d="M-465.642 250.418L262.5 314.925V223.143H-465.642V250.418Z" fill="#D0F0E4"/>
<path d="M262.197 222.794H-465.642V314.925" stroke="#66B0F0" stroke-width="2" stroke-miterlimit="10"/>
<path d="M342.103 433.362V191.529" stroke="#66B0F0" stroke-width="2" stroke-miterlimit="10"/>
<path d="M146.149 27.4519L591.567 400.198C599.284 408.078 605.407 417.434 609.584 427.731C613.762 438.028 615.913 449.065 615.914 460.211V460.211C615.914 507.09 578.711 547.034 532.823 547.034" stroke="#66B0F0" stroke-width="2" stroke-miterlimit="10"/>
<path d="M474.723 652.067V302.179" stroke="#66B0F0" stroke-width="2" stroke-miterlimit="10"/>
</g>
<path d="M190.006 310.872H354.016C370.334 310.871 386.407 314.833 400.848 322.417C415.288 330.002 427.662 340.98 436.901 354.403L512.04 464.862C518.236 473.844 512.627 486.084 501.701 486.084H418.063L384.658 442.511C380.724 436.996 372.016 439.419 371.472 446.187L364.733 528.237H185.862L170.792 444.809C169.871 438.291 161.415 436.286 157.606 441.675L126.922 481.113H26.9171L104.945 357.704C114.011 343.368 126.565 331.555 141.439 323.366C156.312 315.177 173.02 310.879 190.006 310.872Z" fill="white" stroke="#3FB1B5" stroke-width="2" stroke-miterlimit="10" stroke-linecap="round"/>
<path d="M289.698 352.565L303.284 364.058L347.067 310.876H308.273L289.698 352.565Z" fill="white" stroke="#3FB1B5" stroke-width="2" stroke-miterlimit="10" stroke-linecap="round"/>
<path d="M281.304 352.565L268.032 364.058L221.862 310.876H263.177L281.304 352.565Z" fill="white" stroke="#3FB1B5" stroke-width="2" stroke-miterlimit="10" stroke-linecap="round"/>
<path d="M525.185 496.195C525.185 517 510.324 536.718 487.217 540.102L392.486 554.014L371.681 557.064V476.685L378.086 475.181L470.515 453.29C479.225 451.226 488.357 451.841 496.71 455.055C505.064 458.269 512.247 463.931 517.315 471.296C522.436 478.593 525.183 487.286 525.185 496.195Z" fill="#A0505A"/>
<path d="M392.486 554.018L371.681 557.064V476.685L378.086 475.181L392.486 554.018Z" fill="#73325A"/>
<path d="M371.682 577.618H172.55V458.344C172.55 453.901 174.319 449.64 177.467 446.499C180.615 443.357 184.884 441.592 189.336 441.592H354.854C359.305 441.592 363.575 443.357 366.723 446.499C369.871 449.64 371.64 453.901 371.64 458.344V577.618H371.682Z" fill="#FFCF2D"/>
<path d="M284.402 519.13H259.83C259.235 519.132 258.647 519.017 258.097 518.791C257.548 518.565 257.048 518.233 256.628 517.813C256.208 517.394 255.875 516.896 255.648 516.347C255.422 515.799 255.307 515.211 255.309 514.618V504.341C255.307 503.748 255.422 503.16 255.648 502.612C255.875 502.063 256.208 501.565 256.628 501.145C257.048 500.726 257.548 500.394 258.097 500.168C258.647 499.942 259.235 499.827 259.83 499.829H284.402C284.996 499.827 285.585 499.942 286.135 500.168C286.684 500.394 287.184 500.726 287.604 501.145C288.024 501.565 288.357 502.063 288.583 502.612C288.81 503.16 288.925 503.748 288.923 504.341V514.618C288.921 515.814 288.444 516.96 287.596 517.806C286.749 518.652 285.6 519.128 284.402 519.13V519.13Z" stroke="white" stroke-width="2" stroke-miterlimit="10"/>
<path d="M242.499 576.323L453.31 544.865C494.333 538.64 531.296 570.349 531.296 611.791C531.296 629.741 524.151 646.955 511.434 659.648C498.716 672.34 481.467 679.47 463.482 679.47H243.881L242.499 576.323Z" fill="#488E8B"/>
<path d="M213.992 697.894L87.1125 722.333C70.9543 725.759 54.7124 712.307 54.0008 694.928L52.117 648.722C51.1542 625.327 73.6334 611.248 94.8149 621.275L213.992 697.894Z" fill="white" stroke="#2E476C" stroke-width="2" stroke-miterlimit="10"/>
<path d="M95.6937 720.662C80.0797 723.921 64.2983 710.845 63.5448 693.925L61.5773 649.056C60.5726 626.33 82.2565 612.794 102.768 622.57" stroke="#2E476C" stroke-width="2" stroke-miterlimit="10"/>
<path d="M94.8148 621.233L213.992 697.898L186.825 703.12L94.8148 621.233Z" fill="#2E476C"/>
<path d="M140.736 654.822L125.038 686.033L109.508 649.353L91.5496 690.541" stroke="#2E476C" stroke-width="2" stroke-linejoin="round"/>
<path d="M90.6706 643.63L108.252 687.408L125.457 652.445L138.81 681.605" stroke="#2E476C" stroke-width="2" stroke-linejoin="round"/>
<path d="M312.532 640.618C305.5 634.852 285.155 647.97 267.072 669.903C248.988 691.836 240.03 714.312 247.062 720.077C246.016 719.451 113.862 636.732 31.8564 580.292C23.4945 574.545 16.4145 567.134 11.0614 558.524C5.7083 549.914 2.19798 540.292 0.751155 530.263C-0.695674 520.234 -0.0477004 510.015 2.6543 500.248C5.35631 490.481 10.0539 481.377 16.4518 473.509C44.2473 439.294 95.7359 436.996 126.503 468.58L312.532 640.618Z" fill="#5BBFBA"/>
<path d="M292.502 690.872C310.582 668.937 319.535 646.474 312.501 640.699C305.466 634.924 285.107 648.024 267.027 669.959C248.948 691.894 239.994 714.358 247.029 720.133C254.064 725.908 274.423 712.807 292.502 690.872Z" fill="#2E476C" stroke="white" stroke-width="6" stroke-miterlimit="10"/>
<path d="M370.719 712.808L347.193 752.663C335.263 772.842 308.304 773.218 295.955 753.332L256.355 689.664C260.068 683.612 264.209 677.832 268.746 672.368C277.453 661.798 286.704 653.276 294.741 647.928L357.784 671.867C373.188 677.757 379.551 697.81 370.719 712.808Z" fill="white" stroke="#2E476C" stroke-width="2" stroke-miterlimit="10"/>
<path d="M351.128 669.276C365.695 674.916 370.844 693.758 362.514 708.171L340.328 746.397C329.109 765.781 303.7 766.116 292.021 747.065" stroke="#2E476C" stroke-width="2" stroke-miterlimit="10"/>
<path d="M273.769 689.705L305.835 673.5L296.207 712.056L334.551 688.577" stroke="#2E476C" stroke-width="2" stroke-linejoin="round"/>
<path d="M308.388 727.513L318.351 682.603L285.658 698.687L290.681 668.858" stroke="#2E476C" stroke-width="2" stroke-linejoin="round"/>
<path d="M333.379 318.099C333.22 320.675 332.085 323.093 330.203 324.863C328.321 326.632 325.834 327.62 323.249 327.624H313.997L313.411 337.359C312.909 345.38 304.914 353.568 296.583 353.568H273.183C264.895 353.568 256.858 345.38 256.355 337.359L255.769 327.624H246.392C243.8 327.62 241.307 326.627 239.424 324.849C237.541 323.07 236.41 320.641 236.262 318.058C235.927 312.209 240.741 307.363 246.602 307.363H254.513L253.634 292.532C253.589 291.791 253.695 291.049 253.948 290.351C254.201 289.653 254.595 289.014 255.105 288.474C255.615 287.933 256.23 287.503 256.913 287.209C257.596 286.916 258.333 286.765 259.076 286.767H310.732C311.476 286.765 312.212 286.916 312.895 287.209C313.578 287.503 314.194 287.933 314.704 288.474C315.214 289.014 315.607 289.653 315.86 290.351C316.113 291.049 316.22 291.791 316.174 292.532L315.295 307.363H323.291C324.669 307.375 326.031 307.667 327.293 308.219C328.556 308.772 329.693 309.574 330.636 310.578C331.578 311.581 332.308 312.765 332.779 314.058C333.251 315.351 333.455 316.726 333.379 318.099Z" fill="#A0505A"/>
<path d="M315.253 307.363H323.667C323.667 307.363 331.704 278.244 323.96 270.766C316.216 263.288 268.662 246.076 253.299 256.812C242.081 264.666 248.192 307.363 248.192 307.363H254.388C254.388 307.363 279.379 289.482 283.314 291.028C287.248 292.574 272.011 300.093 275.067 301.556C286.495 307.028 307.049 287.184 311.779 287.184C316.509 287.184 315.253 307.363 315.253 307.363Z" fill="#73325A"/>
<path d="M304.662 314.59C304.662 314.59 299.179 310.162 292.146 313.044" stroke="#73325A" stroke-width="2" stroke-miterlimit="10" stroke-linecap="round"/>
<path d="M293.444 338.403C293.444 338.403 290.43 344.836 281.304 341.494" stroke="#73325A" stroke-width="2" stroke-miterlimit="10" stroke-linecap="round"/>
<path d="M262.969 313.128C262.969 313.128 274.062 310.663 277.411 317.514C279.462 321.734 278.458 336.481 280.844 336.648C283.23 336.815 286.83 336.648 286.83 336.648" stroke="#73325A" stroke-width="2" stroke-miterlimit="10" stroke-linecap="round"/>
<path d="M297.169 325.953C298.256 325.953 299.137 324.494 299.137 322.695C299.137 320.895 298.256 319.436 297.169 319.436C296.083 319.436 295.202 320.895 295.202 322.695C295.202 324.494 296.083 325.953 297.169 325.953Z" fill="#73325A"/>
<path d="M271.718 325.953C272.805 325.953 273.686 324.494 273.686 322.695C273.686 320.895 272.805 319.436 271.718 319.436C270.631 319.436 269.751 320.895 269.751 322.695C269.751 324.494 270.631 325.953 271.718 325.953Z" fill="#73325A"/>
<path d="M252.462 319.603C252.343 317.635 251.475 315.786 250.035 314.435C248.596 313.084 246.694 312.333 244.718 312.334" stroke="#73325A" stroke-width="2" stroke-miterlimit="10" stroke-linecap="round"/>
<path d="M316.718 319.812C316.836 317.728 317.746 315.768 319.263 314.331C320.78 312.895 322.79 312.091 324.881 312.084" stroke="#73325A" stroke-width="2" stroke-miterlimit="10" stroke-linecap="round"/>
</svg>
